<svg width="371.000000" height="153.000000" viewBox="0 0 371 153" fill="none" xmlns="http://www.w3.org/2000/svg" xmlns:xlink="http://www.w3.org/1999/xlink">
	<desc>
			Created with Pixso.
	</desc>
	<defs/>
	<path id="Shape" d="M121.51 0C128.59 0 128 9 120.86 11.43C127.7 16 122.78 28.74 112.18 28.75C99.73 28.75 97.54 15.02 105 10.27L106.34 12.06C102.89 14.28 102.17 19.34 104.63 22.73C105.144 22.1047 105.603 21.4355 106 20.73L115.63 4.17C117.23 1.37 119.56 0 121.51 0ZM118.77 4.86L115.9 9.78999C119.52 9.72 121.54 8.92999 122.91 6.36C124.69 3.00999 121.37 0.380005 118.77 4.86ZM112.07 26C110.282 26.0455 108.513 25.6214 106.94 24.77C107.603 23.978 108.199 23.1317 108.72 22.24L114.72 11.87L115.72 11.97C124 13.72 120.69 26 112.07 26Z" clip-rule="evenodd" fill="#FFFFFF" fill-opacity="1.000000" fill-rule="evenodd"/>
	<path id="Shape" d="M259.97 19.27L260.21 19C260.825 19.1652 261.341 19.5831 261.63 20.15C258.72 23.54 255.34 26.62 250.17 26.72L249.96 26.72C248.149 26.7914 246.53 25.6 246.06 23.85L248.06 22.85C248.259 23.3878 248.772 23.7449 249.345 23.7449C249.918 23.7449 250.431 23.3878 250.63 22.85L256 13.54C256.132 13.3108 256.196 13.074 256.196 12.8519C256.196 11.5134 253.891 10.71 250.46 15.35L239.82 33.86L236.23 33.86L242.71 22.62C241.516 23.187 240.22 23.5067 238.9 23.56L238.11 23.56C234.25 28.43 227.96 27.55 227.96 23.01C225.76 25.12 223.48 26.68 221.41 26.68C219.421 26.68 218.296 25.5126 218.296 23.9203C218.296 23.2153 218.517 22.4271 218.98 21.62L223.6 13.62C223.906 13.0928 224.056 12.6357 224.056 12.2957C224.056 10.927 221.63 11.4587 217.24 16.97L211.84 26.38L208.25 26.38L209.47 24.26C207.863 25.4746 205.986 26.2841 204 26.62L203.9 26.62C203.568 26.6607 203.234 26.6841 202.9 26.69C201.089 26.7614 199.47 25.57 199 23.82L201.17 22.66C201.435 23.3795 202.087 23.8844 202.85 23.96C206.2 23.96 205.45 17.33 206.85 13.63C205.59 15.31 203.79 17.8 201.79 20.13C198.85 23.55 195.39 26.7 192.52 26.7C190.531 26.7 189.406 25.5374 189.406 23.9447C189.406 23.2396 189.627 22.4501 190.09 21.64L193.85 15.11C193.998 14.8438 194.071 14.5511 194.071 14.2599C194.071 13.8464 193.924 13.4362 193.64 13.11L193.16 12.53C190.28 16.4 188.99 18.16 187.28 20.16C184.28 23.58 180.28 26.73 176.28 26.73C173.286 26.73 171.447 24.9573 171.447 22.5646C171.447 22.4478 171.451 22.3296 171.46 22.21C170.021 23.0463 168.402 23.5263 166.74 23.61C166.477 23.6273 166.213 23.6273 165.95 23.61C164.558 25.568 162.349 26.7833 159.95 26.91C157.65 26.91 155.84 25.54 155.84 23.11C153.64 25.21 151.36 26.76 149.3 26.76C147.31 26.76 146.191 25.597 146.191 24.0039C146.191 23.299 146.41 22.5098 146.87 21.7L150.63 15.17C150.778 14.9038 150.851 14.6111 150.851 14.3199C150.851 13.9064 150.704 13.4962 150.42 13.17L149.94 12.59C147.06 16.46 145.77 18.22 144.06 20.22C141.12 23.64 137.73 26.79 134.79 26.79C132.98 26.79 131.88 25.83 131.71 24.46C130 25.87 128.22 26.79 126.78 26.79C124.791 26.79 123.666 25.6274 123.666 24.0347C123.666 23.3296 123.887 22.5401 124.35 21.73L129.35 13.11C130.86 10.51 133.52 9 135.44 9C137.413 8.96352 139.067 10.4814 139.2 12.45L141.2 12.45L135.45 22.51C135.141 23.0561 135.011 23.4745 135.011 23.784C135.011 24.2963 135.368 24.51 135.86 24.51C137.44 24.51 139.93 22.17 142.5 19.17L142.74 18.9C145.04 16.13 147.17 13.12 148.74 10.9L148.43 10.49C147.904 9.81047 147.628 9.06569 147.628 8.29764C147.628 7.21207 148.179 6.08002 149.35 5.02L151.2 7.02L151.09 7.11C150.805 7.35811 150.634 7.71146 150.615 8.08873C150.614 8.11194 150.613 8.13512 150.613 8.15825C150.613 8.51102 150.747 8.85165 150.99 9.11L152.99 11.5C153.695 12.3512 154.186 13.1507 154.186 14.1321C154.186 14.7649 153.982 15.4733 153.5 16.32L149.94 22.55C149.631 23.0961 149.501 23.5145 149.501 23.824C149.501 24.3363 149.858 24.55 150.35 24.55C151.93 24.55 154.42 22.21 156.99 19.21L157.18 19L167.15 1.78L170.78 1.78L166.26 9.61C166.939 9.11664 167.751 8.84114 168.59 8.82001L169 8.82001C169.794 8.86888 170.537 9.23143 171.064 9.82784C171.55 10.3777 171.816 11.0847 171.816 11.8142C171.816 11.876 171.814 11.938 171.81 12C171.715 13.4544 171.254 14.8611 170.47 16.09L167.12 21.87C169.194 21.7651 171.135 20.8145 172.49 19.24L172.7 19L176.17 13.03C177.449 10.5202 180.023 8.93443 182.84 8.92C184.925 8.92 186.466 10.1879 186.466 12.1132C186.466 12.8751 186.224 13.74 185.68 14.67L185.17 15.56C182.5 20.17 178.19 20.66 175.9 19.66L175.56 20.28C175.047 21.1786 174.821 21.9301 174.821 22.5386C174.821 23.8736 175.906 24.52 177.41 24.52C179.91 24.52 183.19 22.18 185.76 19.18L186 18.91C188.31 16.14 190.43 13.13 192 10.91L191.7 10.5C191.174 9.82047 190.898 9.07567 190.898 8.30762C190.898 7.22206 191.449 6.09001 192.62 5.03L194.47 7.03L194.36 7.12C194.077 7.36952 193.907 7.72362 193.89 8.10088C193.889 8.12173 193.888 8.14259 193.888 8.16339C193.888 8.51854 194.024 8.86119 194.27 9.12L196.27 11.51C196.975 12.3612 197.466 13.1607 197.466 14.1422C197.466 14.7749 197.262 15.4833 196.78 16.33L193.22 22.56C192.911 23.1061 192.781 23.5245 192.781 23.834C192.781 24.3463 193.137 24.56 193.63 24.56C195.21 24.56 197.7 22.22 200.27 19.22L200.51 18.95C203.72 15.19 206.94 10.52 208.41 8.52L211.08 9.96001C208.89 14.51 209.13 19.71 208 23.1C209.579 22.0002 211.007 20.6992 212.25 19.23L212.45 19L222.32 1.72L225.88 1.72L220.2 11.61C222.02 9.75999 223.66 8.91 225.2 8.91C226.611 8.91 227.761 9.89081 227.761 11.4244C227.761 12.0532 227.568 12.7749 227.12 13.56L221.99 22.56C221.681 23.1061 221.551 23.5245 221.551 23.834C221.551 24.3463 221.907 24.56 222.4 24.56C223.98 24.56 226.47 22.22 229.04 19.22L229.23 19L230.69 16.52L232.44 13.52C234.49 9.96001 236.61 8.87 239.35 8.87C241.735 8.87 243.43 10.6537 243.43 13.0271C243.43 13.9878 243.152 15.0452 242.53 16.12L239.18 21.9C241.252 21.787 243.19 20.838 244.55 19.27L244.79 19L250.35 9.35001L253.91 9.35001L253.19 10.58C256.021 8.0453 259.91 8.63704 259.91 11.6958C259.91 12.559 259.601 13.6187 258.87 14.86L254.94 21.6C254.47 22.35 254.05 23.35 253.47 24.27C256.018 23.168 258.251 21.4498 259.97 19.27ZM179.21 14C180.823 11.231 183.413 10.9991 183.413 12.8224C183.413 13.317 183.222 13.9627 182.77 14.75L182.26 15.64C180.55 18.55 178.26 18.48 176.92 18L179.21 14ZM133.6 19.61C131.44 23 129.32 24.61 127.85 24.61C127.06 24.61 126.62 24.06 127.44 22.61L132.44 13.95C134.36 10.63 138.15 11.49 136.44 14.7L133.6 19.61ZM160.39 24.47C160.011 24.5016 159.638 24.37 159.362 24.1082C159.098 23.8567 158.949 23.5082 158.949 23.1447C158.949 23.1298 158.949 23.1149 158.95 23.1C159.001 22.4416 159.214 21.806 159.57 21.25L160.82 19C161.005 20.4986 161.829 21.8439 163.08 22.69C162.536 23.6931 161.518 24.3492 160.38 24.43L160.39 24.47ZM164.1 21C163.144 20.272 162.586 19.1407 162.586 17.9453C162.586 17.8904 162.588 17.8352 162.59 17.78C162.59 15.25 165.05 11.11 167.07 11.11C167.461 11.1123 167.831 11.2825 168.088 11.5772C168.305 11.8262 168.422 12.1438 168.422 12.4699C168.422 12.5298 168.418 12.5899 168.41 12.65C168.372 13.4039 168.138 14.1347 167.73 14.77L164.1 21ZM237.18 19.22L237 19.22C236.443 19.2226 235.91 19.4464 235.518 19.8421C235.128 20.2355 234.91 20.7666 234.91 21.32L234.91 21.33C234.913 21.7534 235.03 22.1681 235.25 22.53L235.25 22.6C233.904 24.9001 231.022 25.01 231.022 23.0584C231.022 22.5748 231.199 21.9647 231.62 21.23L234.32 16.54L236 13.62C237.944 10.3227 240.445 10.5995 240.445 12.6257C240.445 13.205 240.24 13.9273 239.76 14.75L237.18 19.22ZM0.995972 73.257L6.70996 67.544L12.422 73.259L6.70801 78.971L0.995972 73.257ZM353.019 73.283L358.733 67.57L364.446 73.285L358.731 78.997L353.019 73.283Z" clip-rule="evenodd" fill="#FFFFFF" fill-opacity="1.000000" fill-rule="evenodd"/>
	<path id="Shape" d="M62.6899 62.32L62.6899 75C62.696 76.3704 62.0731 77.6678 61 78.52C62.0409 79.4696 62.6509 80.8016 62.6899 82.21L62.6899 96.31C62.6525 98.8127 60.6327 100.832 58.13 100.87L42.49 100.87L42.49 98.79L56 98.79C58.5222 98.7794 60.5719 96.7519 60.61 94.23L60.61 80.13C60.5775 78.7263 59.9788 77.3954 58.95 76.44C60.0092 75.584 60.6202 74.2918 60.61 72.93L60.61 60.25C60.608 59.555 60.4436 58.8702 60.13 58.25C61.6874 59.01 62.6793 60.5871 62.6899 62.32ZM47.8 73.48L49.88 73.48L49.88 65.16L53.15 65.16L53.15 63.07L47.8 63.07L47.8 73.48Z" clip-rule="evenodd" fill="#636466" fill-opacity="1.000000" fill-rule="evenodd"/>
	<path id="Shape" d="M82.89 91.34L80.8101 91.34L80.8101 63.07L86.16 63.07L86.16 65.16L82.89 65.16L82.89 91.34ZM47.8 91.34L49.88 91.34L49.88 82.95L53.15 82.95L53.15 80.87L47.8 80.87L47.8 91.34Z" clip-rule="evenodd" fill="#636466" fill-opacity="1.000000" fill-rule="evenodd"/>
	<path id="Shape" d="M128.66 78.46C128.662 80.2025 127.651 81.7872 126.07 82.52L129.14 100.87L121.75 100.87L121.4 98.79L127.08 98.79L124 80.44C125.578 79.7018 126.582 78.1122 126.57 76.37L126.57 60.22C126.565 59.5254 126.401 58.8413 126.09 58.22C127.661 58.9819 128.659 60.574 128.66 62.32L128.66 78.46ZM93.62 60.25C93.618 59.555 93.4536 58.8702 93.14 58.25C94.7029 59.0106 95.6989 60.5919 95.71 62.33L95.71 96.33C95.6725 98.8327 93.6527 100.852 91.15 100.89L80.0699 100.89C78.3372 100.879 76.76 99.8874 76 98.33C76.6207 98.6423 77.3052 98.8065 78 98.81L89.0601 98.81C91.5627 98.7724 93.5824 96.7527 93.62 94.25L93.62 60.25ZM113.82 73.48L115.9 73.48L115.9 65.16L119.18 65.16L119.18 63.07L113.82 63.07L113.82 73.48ZM147.93 91.34L145.84 91.34L145.84 63.07L151.2 63.07L151.2 65.16L147.93 65.16L147.93 91.34ZM116.65 80.87L113.82 80.87L113.82 98.79L108.51 98.79L108.51 100.88L115.9 100.88L115.9 82.95L117 82.95L116.65 80.87Z" clip-rule="evenodd" fill="#636466" fill-opacity="1.000000" fill-rule="evenodd"/>
	<path id="Shape" d="M158.18 58.25C158.494 58.87 158.658 59.555 158.66 60.25L158.66 94.25C158.622 96.7527 156.603 98.7724 154.1 98.81L143 98.81C142.305 98.8069 141.621 98.6426 141 98.33C141.76 99.8874 143.337 100.879 145.07 100.89L156.16 100.89C158.663 100.852 160.682 98.8327 160.72 96.33L160.72 62.33C160.715 60.5987 159.731 59.0191 158.18 58.25ZM180.94 91.34L178.85 91.34L178.85 63.07L184.21 63.07L184.21 65.16L180.94 65.16L180.94 91.34Z" clip-rule="evenodd" fill="#636466" fill-opacity="1.000000" fill-rule="evenodd"/>
	<path id="Shape" d="M212.24 57.77L212.24 98.79L206.93 98.79L206.93 100.88L214.32 100.88L214.32 57.77L212.24 57.77ZM245.12 98.79L245.12 57.77L247.21 57.77L247.21 100.88L239.81 100.88L239.22 98.79L245.12 98.79ZM191.67 60.25C191.668 59.555 191.504 58.8702 191.19 58.25C192.749 59.0134 193.741 60.5942 193.75 62.33L193.75 96.33C193.713 98.8327 191.693 100.852 189.19 100.89L173.55 100.89L173.55 98.81L187.11 98.81C189.613 98.7724 191.632 96.7527 191.67 94.25L191.67 60.25ZM278.14 60.25C278.138 59.555 277.974 58.8702 277.66 58.25C279.217 59.01 280.209 60.5871 280.22 62.32L280.22 71.07L272.77 72.8L272.77 70.24L278.14 69L278.14 60.25ZM232.31 79.95L232.31 98.79L227.01 98.79L227.01 100.88L234.4 100.88L234.4 87.19L232.31 79.95ZM270.69 83L264.58 83C262.83 82.9911 261.242 81.9751 260.5 80.39C261.121 80.7019 261.805 80.8662 262.5 80.87L270.69 80.87L270.69 83ZM267.41 85.73L265.32 86.21L265.32 91.34L267.41 91.34L267.41 85.73Z" clip-rule="evenodd" fill="#636466" fill-opacity="1.000000" fill-rule="evenodd"/>
	<path id="Shape" d="M314.15 57.77L311.4 57.77L305.17 77.18L312.07 98.79L306.06 98.79L306.64 100.63L306.7 100.88L314.15 100.88L307.25 79.26L314.15 57.77ZM331.53 98.79L331.53 57.77L333.61 57.77L333.61 100.88L326.23 100.88L326.23 98.79L331.53 98.79ZM265.32 63.07L265.32 73.48L267.41 73.48L267.41 65.16L270.68 65.16L270.68 63.07L265.32 63.07ZM278.14 78.05C278.138 77.355 277.974 76.6702 277.66 76.05C279.21 76.8156 280.193 78.3916 280.2 80.12L280.2 96.33C280.162 98.8327 278.143 100.852 275.64 100.89L264.56 100.89C262.827 100.879 261.25 99.8874 260.49 98.33C261.111 98.6423 261.795 98.8065 262.49 98.81L273.58 98.81C276.083 98.7724 278.102 96.7527 278.14 94.25L278.14 78.05ZM298.33 80.87L299.01 80.87L300.42 85.35L300.42 100.88L293.03 100.88L293.03 98.79L298.33 98.79L298.33 80.87Z" clip-rule="evenodd" fill="#636466" fill-opacity="1.000000" fill-rule="evenodd"/>
	<path id="Shape" d="M168.9 123.85L170.31 123.85C175.74 124.13 180 125.58 182.7 128.57C185.44 125.57 189.7 124.11 195.16 123.85L196.51 123.85C208.62 124.67 214.14 133.35 223.81 137.03C225.31 137.72 226.94 138.06 228.6 138.03C231.08 137.77 232.66 135.25 232.34 132.46C232 129.46 229.06 126.85 225.78 128.28C225.34 128.49 224.95 128.76 224.61 129.09C224.36 129.32 224.08 129.92 223.44 129.7C222.84 129.2 223.44 128.47 223.75 128.05C224.96 125.89 227.37 124.7 229.82 125.05C235.45 125.45 240.49 130.39 239.63 137.87C237.71 149 227.53 152 215.46 153L211.53 153C200.99 152.57 190.89 148.7 182.76 142C174.56 148.68 164.42 152.54 153.86 153L150 153C137.84 151.92 127.56 149 125.77 137.53C125.09 129.38 129.95 125.37 135.59 124.96C138.05 124.61 140.48 125.8 141.73 127.96C142 128.42 142.53 129.13 142.03 129.67C141.42 129.78 141.13 129.31 140.87 129.07C140.13 128.3 139.11 127.85 138.05 127.84C134.19 127.7 131.97 131.99 133.5 135.45C134.12 136.81 135.39 137.76 136.88 137.97C138.52 137.97 140.16 137.63 141.67 136.97C143.01 136.45 144.31 135.81 145.53 135.07C152.89 130.81 158.64 124.76 168.9 123.85L168.9 123.85Z" fill="#FFFFFF" fill-opacity="1.000000" fill-rule="nonzero"/>
	<path id="Shape" d="M368.347 77.192L362.634 82.906L364.72 84.992L370.433 79.277L368.347 77.192ZM16.38 77.236L10.667 82.95L12.7531 85.035L18.4659 79.322L16.38 77.236Z" clip-rule="evenodd" fill="#636466" fill-opacity="1.000000" fill-rule="evenodd"/>
	<path id="Shape" d="M55 72.48C56.0441 71.6311 56.65 70.3571 56.65 69.0118L56.6499 69L56.6499 56.28C56.6335 53.7684 54.6016 51.7364 52.09 51.72L36.45 51.72L36.45 94.83L52.1 94.83C54.6027 94.7924 56.6224 92.7727 56.6599 90.27L56.6599 76.17C56.6274 74.7663 56.0288 73.4355 55 72.48ZM49.2 59.11L43.84 59.11L43.84 69.52L49.2 69.52L49.2 59.11ZM49.2 76.91L43.84 76.91L43.84 87.38L49.2 87.38L49.2 76.91ZM89.6599 56.28C89.6436 53.7684 87.6116 51.7364 85.1 51.72L74 51.72C72.7898 51.7173 71.6283 52.1969 70.7726 53.0527C69.9192 53.9061 69.4399 55.0634 69.4399 56.27L69.4399 56.28L69.4399 90.28C69.4563 92.7916 71.4883 94.8237 74 94.84L85.1 94.84C87.6027 94.8025 89.6224 92.7827 89.6599 90.28L89.6599 56.28ZM82.2 59.11L76.85 59.11L76.85 87.38L82.21 87.38L82.2 59.11ZM112.71 76.91L115.71 94.83L123.08 94.83L120 76.48C121.596 75.7589 122.625 74.1718 122.63 72.42L122.63 56.28C122.63 56.27 122.63 56.2599 122.63 56.2499C122.63 55.0593 122.161 53.916 121.324 53.068C120.48 52.2128 119.331 51.7279 118.13 51.72L102.49 51.72L102.49 94.83L109.88 94.83L109.88 76.91L112.71 76.91ZM115.22 59.11L109.86 59.11L109.86 69.52L115.22 69.52L115.22 59.11ZM154.7 56.28C154.684 53.7684 152.652 51.7364 150.14 51.72L139 51.72C136.506 51.7474 134.5 53.7769 134.5 56.2695L134.5 56.28L134.5 90.28C134.516 92.7916 136.548 94.8237 139.06 94.84L150.14 94.84C152.643 94.8025 154.662 92.7827 154.7 90.28L154.7 56.28ZM147.24 59.11L141.88 59.11L141.88 87.38L147.24 87.38L147.24 59.11ZM183.15 51.72L167.51 51.72L167.51 94.84L183.15 94.84C185.653 94.8025 187.672 92.7827 187.71 90.28L187.71 56.28C187.694 53.7684 185.662 51.7364 183.15 51.72ZM180.26 59.11L174.9 59.11L174.9 87.38L180.26 87.38L180.26 59.11ZM200.89 51.72L200.89 94.83L208.28 94.83L208.28 51.72L200.89 51.72ZM241.17 94.83L241.17 51.72L233.75 51.72L233.75 69.39L228.33 51.72L221 51.72L221 94.83L228.36 94.83L228.36 76L233.78 94.83L241.17 94.83ZM274.18 74.08C274.164 71.5684 272.132 69.5364 269.62 69.52L261.39 69.52L261.39 59.11L266.75 59.11L266.75 66.73L274.2 65L274.2 56.28C274.184 53.7684 272.152 51.7364 269.64 51.72L258.54 51.72C257.333 51.7227 256.177 52.2046 255.326 53.0597C254.476 53.9125 254 55.0669 254 56.27L254 56.28L254 72.37C254.003 73.5768 254.484 74.733 255.34 75.5844C256.195 76.4358 257.353 76.9127 258.56 76.91L266.75 76.91L266.75 87.39L261.39 87.39L261.39 79.69L254 81.41L254 90.28C254.016 92.7839 256.036 94.8128 258.54 94.84L269.62 94.84C272.123 94.8025 274.142 92.7827 274.18 90.28L274.18 74.08ZM308.12 94.84L301.22 73.22L308.18 51.72L300.67 51.72L295 69.52L294.39 69.52L294.39 51.72L287 51.72L287 94.83L294.39 94.83L294.39 76.92L295.07 76.92L300.61 94.59L300.67 94.84L308.12 94.84ZM320.19 51.72L320.19 94.83L327.58 94.83L327.58 51.72L320.19 51.72Z" clip-rule="evenodd" fill="#FFFFFF" fill-opacity="1.000000" fill-rule="evenodd"/>
</svg>
