<svg width="14.000000" height="14.000000" viewBox="0 0 14 14" fill="none" xmlns="http://www.w3.org/2000/svg" xmlns:xlink="http://www.w3.org/1999/xlink">
	<desc>
			Created with Pixso.
	</desc>
	<defs/>
	<g opacity="0.300000" style="mix-blend-mode:normal">
		<path id="Shape" d="" fill="#FFFFFF" fill-opacity="1.000000" fill-rule="nonzero"/>
		<path id="Shape" d="M6.31 8.06L1.31 8.06C1.02 8.06 0.74 7.96 0.53 7.77C0.33 7.61 0.19 7.39 0.14 7.15C0.05 6.79 0.14 6.42 0.38 6.15C0.55 5.91 0.81 5.75 1.09 5.7L6.33 5.7L6.26 5.62L4.76 4.12C4.47 3.86 4.33 3.49 4.37 3.12C4.38 2.87 4.47 2.63 4.64 2.45C4.81 2.23 5.06 2.08 5.33 2.04C5.69 1.96 6.07 2.06 6.33 2.32L9.72 5.7C9.88 5.85 10.03 6.01 10.17 6.18C10.29 6.34 10.37 6.54 10.38 6.76C10.39 6.96 10.35 7.17 10.26 7.36C10.21 7.45 10.14 7.54 10.06 7.63L8.34 9.38L6.51 11.24C6.3 11.45 6.02 11.59 5.71 11.61C5.36 11.64 5.01 11.5 4.77 11.24C4.43 10.88 4.35 10.34 4.57 9.91C4.63 9.79 4.71 9.68 4.81 9.59L6.23 8.14L6.31 8.08L6.31 8.06Z" fill="#FFFFFF" fill-opacity="1.000000" fill-rule="nonzero"/>
		<path id="Shape" d="M11.51 7L11.51 3.06C11.49 2.77 11.28 2.54 11 2.49L9.82 2.49C9.4 2.49 9.02 2.28 8.82 1.93C8.68 1.73 8.62 1.49 8.64 1.26C8.65 0.97 8.78 0.7 9 0.51C9.16 0.31 9.39 0.18 9.65 0.13L10.97 0.13C11.61 0.14 12.24 0.35 12.75 0.76C13.1 1.03 13.39 1.39 13.6 1.8C13.74 2.08 13.83 2.38 13.86 2.7L13.86 10.9C13.86 11.39 13.74 11.88 13.51 12.32C13.32 12.64 13.08 12.93 12.8 13.18C12.61 13.34 12.4 13.48 12.18 13.6C11.95 13.72 11.7 13.8 11.45 13.84C11.23 13.85 11.02 13.85 10.81 13.84L9.81 13.84C9.55 13.84 9.31 13.75 9.12 13.6C8.63 13.2 8.54 12.5 8.91 12C9.07 11.78 9.3 11.64 9.57 11.58L10.84 11.58C10.98 11.58 11.12 11.55 11.25 11.47C11.41 11.35 11.51 11.17 11.51 10.97L11.51 7.04L11.51 7Z" fill="#FFFFFF" fill-opacity="1.000000" fill-rule="nonzero"/>
	</g>
</svg>
