<svg width="28.000000" height="16.000000" viewBox="0 0 28 16" fill="none" xmlns="http://www.w3.org/2000/svg" xmlns:xlink="http://www.w3.org/1999/xlink">
	<desc>
			Created with Pixso.
	</desc>
	<defs/>
	<path id="Shape" d="M27 14.47L26.91 14.3C26.19 13.17 25.31 12.16 24.31 11.3C23.73 10.74 23.36 10.37 23.21 10.18C22.88 9.87 22.8 9.39 23 9C23.34 8.36 23.75 7.76 24.22 7.21L25.1 6.06C26.66 3.97 27.33 2.64 27.1 2.06L27 1.94C26.89 1.82 26.75 1.75 26.6 1.71C26.31 1.66 26.01 1.66 25.73 1.71L21.81 1.71C21.72 1.69 21.62 1.69 21.54 1.71L21.24 1.71C21.18 1.75 21.13 1.8 21.09 1.85C21.03 1.93 20.98 2.01 20.95 2.09C20.54 3.15 20.05 4.17 19.49 5.16C19.15 5.71 18.84 6.2 18.56 6.62C18.34 6.94 18.11 7.24 17.85 7.53C17.68 7.69 17.51 7.85 17.33 8C17.17 8.12 17.06 8.17 16.98 8.15L16.75 8.09C16.62 8.01 16.51 7.9 16.44 7.77C16.35 7.6 16.29 7.42 16.28 7.23L16.28 2.59C16.3 2.39 16.3 2.18 16.28 1.97C16.24 1.82 16.2 1.68 16.14 1.54C16.08 1.4 15.98 1.28 15.86 1.2C15.71 1.12 15.56 1.06 15.4 1.03C14.79 0.95 14.17 0.94 13.57 1C12.47 0.9 11.37 1.02 10.32 1.32C10.12 1.43 9.94 1.57 9.8 1.73C9.63 1.94 9.61 2.05 9.73 2.07C10.18 2.1 10.59 2.31 10.89 2.66L10.97 2.82C11.05 3.02 11.12 3.23 11.16 3.44C11.22 3.77 11.26 4.11 11.28 4.44C11.32 5.01 11.32 5.58 11.28 6.15C11.23 6.62 11.19 6.98 11.15 7.25C11.12 7.47 11.06 7.68 10.97 7.89C10.92 7.99 10.86 8.09 10.81 8.19L10.74 8.26C10.62 8.3 10.49 8.33 10.37 8.32C10.2 8.31 10.04 8.24 9.91 8.14C9.7 7.98 9.51 7.81 9.35 7.62C9.1 7.32 8.88 7.01 8.69 6.69C8.44 6.29 8.19 5.81 7.93 5.27L7.71 4.88C7.57 4.62 7.39 4.25 7.15 3.77C6.91 3.28 6.7 2.8 6.53 2.33C6.46 2.16 6.35 2 6.2 1.9L6.13 1.9C6.06 1.83 5.99 1.78 5.91 1.73C5.81 1.69 5.7 1.66 5.6 1.65L1.87 1.68C1.58 1.65 1.3 1.74 1.1 1.94L1 2C0.98 2.07 0.98 2.14 1 2.21C1 2.34 1.03 2.47 1.08 2.58C1.62 3.88 2.22 5.12 2.86 6.31C3.5 7.49 4.05 8.45 4.52 9.18C4.99 9.9 5.48 10.59 6 11.24C6.51 11.88 6.84 12.3 7 12.48L7.37 12.89L7.71 13.22C8.02 13.5 8.35 13.76 8.71 14C9.16 14.32 9.62 14.62 10.11 14.9C10.67 15.21 11.27 15.45 11.9 15.62C12.55 15.8 13.22 15.87 13.9 15.84L15.47 15.84C15.73 15.83 15.99 15.72 16.19 15.54L16.24 15.47C16.28 15.39 16.31 15.3 16.34 15.22C16.35 15.09 16.35 14.97 16.34 14.85C16.32 14.49 16.35 14.14 16.43 13.8C16.47 13.55 16.55 13.31 16.66 13.09C16.73 12.94 16.83 12.8 16.95 12.69C17.01 12.61 17.09 12.54 17.18 12.49L17.29 12.49C17.56 12.42 17.85 12.5 18.06 12.7C18.36 12.92 18.64 13.19 18.89 13.49C19.15 13.8 19.46 14.15 19.82 14.54C20.12 14.86 20.45 15.15 20.82 15.41L21.09 15.57C21.31 15.69 21.55 15.79 21.8 15.87C22.04 15.95 22.3 15.98 22.56 15.94L26.04 15.89C26.31 15.9 26.59 15.84 26.84 15.72C26.99 15.64 27.11 15.51 27.18 15.35C27.21 15.19 27.21 15.04 27.18 14.89C27.15 14.76 27.12 14.64 27.08 14.53L27 14.47Z" fill="#FFFFFF" fill-opacity="1.000000" fill-rule="nonzero"/>
</svg>
